Coordinates
version=1
nRows=29
nColumns=24
inDegrees=yes

Units are S.I. units (second, meters, Newtons, ...)
Angles are in degrees.

endheader
time	pelvis_tilt	pelvis_list	pelvis_rotation	pelvis_tx	pelvis_ty	pelvis_tz	hip_flexion_r	hip_adduction_r	hip_rotation_r	knee_angle_r	ankle_angle_r	subtalar_angle_r	mtp_angle_r	hip_flexion_l	hip_adduction_l	hip_rotation_l	knee_angle_l	ankle_angle_l	subtalar_angle_l	mtp_angle_l	lumbar_extension	lumbar_bending	lumbar_rotation
      3.27500000	     -5.15853017	      0.75114719	    363.24046424	      0.13806043	      1.39156649	     -1.01059165	     13.53244892	      2.01666537	      1.30856945	    -13.20323029	     -1.48846322	    -10.25662265	      4.25815536	     18.00849909	      3.62370699	      5.82354490	    -53.82628727	     -1.42862047	     13.15557287	     41.94572668	     -6.93045628	      5.75014673	     12.43493737
      3.28000000	     -5.22423515	      0.91264510	    363.19940267	      0.14273036	      1.39210249	     -1.01021855	     13.21145973	      1.89149504	      1.43085680	    -13.03772903	     -1.31075847	    -10.26127293	      4.16163604	     18.61327766	      3.77179123	      5.69159192	    -53.51256871	     -0.97037438	     13.08722449	     41.41448864	     -6.91686538	      5.53586970	     12.44783436
      3.28500000	     -5.27087644	      1.07019449	    363.16240966	      0.14738385	      1.39262806	     -1.00986196	     12.86620309	      1.76833516	      1.53812082	    -12.86343519	     -1.12946284	    -10.27290412	      4.07244090	     19.17928329	      3.91452632	      5.56640648	    -53.13172564	     -0.53919764	     12.97648909	     40.93966507	     -6.92318846	      5.31525243	     12.50353224
      3.29000000	     -5.32538646	      1.22894305	    363.12904226	      0.15202691	      1.39314208	     -1.00952451	     12.52712776	      1.63867885	      1.64134577	    -12.68217833	     -0.97050474	    -10.26646154	      4.00162836	     19.73391976	      4.06137860	      5.45186279	    -52.67972898	     -0.15005495	     12.80289615	     40.51045410	     -6.92410534	      5.09704349	     12.53700379
      3.29500000	     -5.39492679	      1.37893436	    363.10158290	      0.15663972	      1.39360016	     -1.00921371	     12.20769647	      1.51384014	      1.75568493	    -12.50398114	     -0.80237444	    -10.26219710	      3.95452825	     20.29402227	      4.20501581	      5.35691478	    -52.17420027	      0.19913517	     12.60071095	     40.14872306	     -6.91220586	      4.89199637	     12.55763113
      3.30000000	     -5.47688686	      1.51889577	    363.08236947	      0.16126594	      1.39402965	     -1.00891981	     11.90002211	      1.39457504	      1.82717697	    -12.32339950	     -0.63469092	    -10.24911318	      3.89625583	     20.84880488	      4.33841939	      5.26711565	    -51.61094277	      0.53336546	     12.36331651	     39.73774769	     -6.87834462	      4.69083783	     12.59788806
      3.30500000	     -5.53808607	      1.66042174	    363.06956100	      0.16586596	      1.39444403	     -1.00862435	     11.57576107	      1.27266450	      1.85866188	    -12.15150249	     -0.46294237	    -10.25164399	      3.85598945	     21.36131026	      4.46937873	      5.17889110	    -50.98158759	      0.84805713	     12.11276402	     39.39987504	     -6.87366752	      4.48451122	     12.61143620
      3.31000000	     -5.61589847	      1.77709397	    363.06151418	      0.17047423	      1.39482838	     -1.00843141	     11.26202016	      1.16527800	      1.90531550	    -11.96340177	     -0.30755068	    -10.17086932	      3.79125353	     21.87292385	      4.59555174	      5.13792433	    -50.30340731	      1.13866460	     11.82195660	     38.91651330	     -6.84176292	      4.32297881	     12.66356944
      3.31500000	     -5.69852704	      1.89904179	    363.05715376	      0.17507864	      1.39518185	     -1.00820419	     10.95863095	      1.05387352	      1.92634506	    -11.78489271	     -0.14033708	    -10.11752730	      3.73881179	     22.37027105	      4.71808826	      5.08583526	    -49.56534253	      1.40451551	     11.53595212	     38.50071366	     -6.81155347	      4.14542528	     12.67578077
      3.32000000	     -5.77686251	      2.01844869	    363.05923990	      0.17965324	      1.39548118	     -1.00797774	     10.65645017	      0.94406091	      1.91629080	    -11.61266784	      0.03717377	    -10.07825572	      3.70956757	     22.84954973	      4.83519705	      5.03249873	    -48.77839133	      1.63525725	     11.22546052	     38.14536734	     -6.79035490	      3.96231445	     12.68507620
      3.32500000	     -5.87480475	      2.11689138	    363.05944267	      0.18424539	      1.39575112	     -1.00779704	     10.38083503	      0.85219832	      1.91350965	    -11.45138338	      0.20676954	     -9.99728094	      3.67907804	     23.32470905	      4.93919836	      5.00642309	    -47.93177815	      1.83520379	     10.86975962	     37.72795473	     -6.73925242	      3.80617340	     12.70386878
      3.33000000	     -5.96457907	      2.21990770	    363.05872520	      0.18882203	      1.39597985	     -1.00761685	     10.10256060	      0.75510085	      1.89565303	    -11.29857427	      0.38378937	     -9.91621182	      3.65477427	     23.77105751	      5.04407431	      4.97875998	    -47.03246510	      2.02020620	     10.52817111	     37.32957283	     -6.70453583	      3.64650430	     12.71584253
      3.33500000	     -6.04369035	      2.30959695	    363.05330102	      0.19338575	      1.39619501	     -1.00750323	      9.81365540	      0.66677762	      1.88502135	    -11.14270626	      0.56191329	     -9.77959702	      3.62365869	     24.18240043	      5.14254459	      4.97331932	    -46.07971402	      2.17825166	     10.15266481	     36.86582005	     -6.68690787	      3.52252278	     12.74664191
      3.34000000	     -6.13755847	      2.41218410	    363.04146276	      0.19795377	      1.39634986	     -1.00732020	      9.55765301	      0.57158638	      1.85471501	    -11.01946057	      0.75825493	     -9.70091758	      3.61128944	     24.58647707	      5.23547030	      4.93434793	    -45.06621248	      2.30131725	      9.79727872	     36.47089785	     -6.65203387	      3.36262700	     12.75761952
      3.34500000	     -6.23542946	      2.50216865	    363.02412191	      0.20250842	      1.39646514	     -1.00717577	      9.31453987	      0.48785209	      1.83682288	    -10.90764360	      0.94778551	     -9.60134804	      3.60657595	     24.97114147	      5.31874357	      4.91181592	    -43.99848320	      2.40012835	      9.41249724	     36.07051392	     -6.61772177	      3.22283482	     12.78219791
      3.35000000	     -6.30828476	      2.57747230	    363.00048206	      0.20704668	      1.39656231	     -1.00708257	      9.04998671	      0.41453163	      1.80204142	    -10.80182228	      1.15267218	     -9.40073057	      3.58352420	     25.30661794	      5.38938629	      4.90566667	    -42.88633631	      2.50776157	      9.00411263	     35.54643326	     -6.61186955	      3.10658247	     12.85542652
      3.35500000	     -6.40936759	      2.66840844	    362.95831700	      0.21158626	      1.39658963	     -1.00688749	      8.83266851	      0.33796463	      1.81700522	    -10.72477642	      1.36426477	     -9.33988176	      3.59129898	     25.64776146	      5.44739250	      4.85072705	    -41.70762436	      2.52361565	      8.64470281	     35.19204752	     -6.58146741	      2.96366979	     12.87540620
      3.36000000	     -6.50052156	      2.75805754	    362.90470587	      0.21610948	      1.39658243	     -1.00672523	      8.61712352	      0.26005842	      1.82694841	    -10.66637500	      1.57631937	     -9.23062829	      3.61076640	     25.95097711	      5.50312092	      4.79953084	    -40.47203446	      2.52657893	      8.22558939	     34.80346492	     -6.56517996	      2.82277528	     12.94329925
      3.36500000	     -6.57205263	      2.83664199	    362.83968349	      0.22061649	      1.39656170	     -1.00660718	      8.38893895	      0.19063085	      1.83249823	    -10.61839589	      1.79235363	     -9.04838536	      3.62311996	     26.20571818	      5.54568410	      4.75876607	    -39.18240881	      2.52465600	      7.77947066	     34.35441865	     -6.57348358	      2.70516711	     13.06023295
      3.37000000	     -6.68188395	      2.92044070	    362.75874805	      0.22512683	      1.39644531	     -1.00639188	      8.22199641	      0.12760381	      1.87162505	    -10.60594864	      2.03069966	     -8.97704297	      3.65211209	     26.48208430	      5.56417955	      4.65997815	    -37.84176761	      2.44747266	      7.39846631	     34.00434153	     -6.54625971	      2.56978087	     13.12732390
      3.37500000	     -6.76702005	      3.00453134	    362.66180675	      0.22962981	      1.39632294	     -1.00620281	      8.03389478	      0.06338703	      1.92270937	    -10.59875292	      2.26623044	     -8.86089807	      3.68486725	     26.69874899	      5.57801733	      4.56271263	    -36.43595600	      2.34438530	      6.95540036	     33.62533537	     -6.54483751	      2.43952883	     13.25135848
      3.38000000	     -6.83689607	      3.08245374	    362.55994743	      0.23412724	      1.39617756	     -1.00604650	      7.83805981	      0.00287296	      1.96102189	    -10.60542149	      2.49429899	     -8.69666924	      3.70094947	     26.86830742	      5.58421320	      4.47605257	    -34.97258298	      2.23331513	      6.49192472	     33.21440299	     -6.56203847	      2.31000133	     13.42660058
      3.38500000	     -6.94245295	      3.16564179	    362.43878210	      0.23862834	      1.39594114	     -1.00580710	      7.69849577	     -0.05217581	      2.05013589	    -10.64399100	      2.76154722	     -8.62779177	      3.73450566	     27.05591454	      5.56546669	      4.32089645	    -33.46206069	      2.04032630	      6.09625937	     32.87427746	     -6.54771445	      2.17963696	     13.53289970
      3.39000000	     -7.02680902	      3.24882351	    362.30898928	      0.24314048	      1.39569948	     -1.00559075	      7.53916419	     -0.10885179	      2.13724043	    -10.68649449	      3.01415194	     -8.52631041	      3.76372858	     27.18402832	      5.54345845	      4.17048870	    -31.88565812	      1.82003129	      5.65421347	     32.51158044	     -6.55178274	      2.04458309	     13.70436013
      3.39500000	     -7.10517927	      3.32634915	    362.17566606	      0.24764976	      1.39542664	     -1.00540641	      7.38117587	     -0.16176740	      2.21939586	    -10.74142405	      3.25125176	     -8.40401440	      3.77840779	     27.27524207	      5.51346398	      4.02256197	    -30.25481847	      1.57973133	      5.21901993	     32.14459288	     -6.56465308	      1.91683796	     13.90160013
      3.40000000	     -7.18547789	      3.40442135	    362.04500141	      0.25217906	      1.39510356	     -1.00520173	      7.23027555	     -0.21258332	      2.28807721	    -10.80880084	      3.52777352	     -8.30904168	      3.78279747	     27.34111172	      5.47265859	      3.83754594	    -28.57467410	      1.28195589	      4.81532679	     31.78599931	     -6.57058062	      1.77782370	     14.10255629
      3.40500000	     -7.28295969	      3.48530413	    361.88970731	      0.25672525	      1.39473744	     -1.00496410	      7.10912783	     -0.26148853	      2.40955507	    -10.89454819	      3.79215893	     -8.23242325	      3.79842044	     27.38782029	      5.41628210	      3.61755061	    -26.82702839	      0.93820584	      4.43185127	     31.46066412	     -6.56170473	      1.64426778	     14.28812302
      3.41000000	     -7.34582261	      3.56626591	    361.72104318	      0.26129583	      1.39435823	     -1.00470962	      6.95210975	     -0.30649958	      2.54431175	    -10.98442129	      4.06340204	     -8.16108679	      3.82411348	     27.35353764	      5.34744648	      3.37117811	    -25.00413151	      0.54421222	      4.07269724	     31.16170249	     -6.59256266	      1.51186134	     14.48311270
      3.41500000	     -7.38512678	      3.65021779	    361.54831326	      0.26594206	      1.39397248	     -1.00444533	      6.76137296	     -0.35375595	      2.65917645	    -11.06524251	      4.34629866	     -8.10412644	      3.84409029	     27.24171643	      5.27232532	      3.08305652	    -23.09433678	      0.07237962	      3.73431023	     30.91288073	     -6.63254020	      1.36152628	     14.71713551
